<svg xmlns="http://www.w3.org/2000/svg" version="1.1" xmlns:xlink="http://www.w3.org/1999/xlink" xmlns:svgjs="http://svgjs.dev/svgjs" width="1440" height="560" preserveAspectRatio="none" viewBox="0 0 1440 560">
  <defs>
    <!-- Define a blur filter -->
    <filter id="blurFilter">
      <feGaussianBlur stdDeviation="1" />
    </filter>
    <mask id="SvgjsMask1038">
      <rect width="1440" height="560" fill="#ffffff"></rect>
    </mask>
  </defs>

  <g mask="url(#SvgjsMask1038)" fill="none" filter="url(#blurFilter)">
    <rect width="1440" height="560" x="0" y="0" fill="rgba(23, 24, 29, 1)"></rect>
    <path d="M438.57 469.53 a17.54 17.54 0 1 0 35.08 0 a17.54 17.54 0 1 0 -35.08 0z" stroke="#e73635"></path>
    <path d="M5.98 334.79L45.69 334.79L45.69 377.73L5.98 377.73z" stroke="rgba(129, 129, 129, 1)"></path>
    <path d="M1023.74 409.79L1072.83 409.79L1072.83 460.17L1023.74 460.17z" fill="#e73635"></path>
    <path d="M659.11 80.35 a47.08 47.08 0 1 0 94.16 0 a47.08 47.08 0 1 0 -94.16 0z" fill="#e73635"></path>
    <path d="M1300.24 155.03 a45.45 45.45 0 1 0 90.9 0 a45.45 45.45 0 1 0 -90.9 0z" stroke="#e73635"></path>
    <path d="M-9.57 20.96a12.06 12.06 0 1 0 20.8 12.21z" stroke="rgba(129, 129, 129, 1)"></path>
    <path d="M114.77 310.32L146.27 310.32L146.27 358.9L114.77 358.9z" stroke="rgba(129, 129, 129, 1)"></path>
    <path d="M1036.09 207.98L1066.06 207.98L1066.06 225.15L1036.09 225.15z" fill="rgba(129, 129, 129, 1)"></path>
    <path d="M926.83 33.54L975.05 33.54L975.05 81.76L926.83 81.76z" fill="rgba(129, 129, 129, 1)"></path>
    <path d="M1251.24 244.12L1274.56 244.12L1274.56 267.44L1251.24 267.44z" stroke="rgba(129, 129, 129, 1)"></path>
    <path d="M381.37 55.39 a50.83 50.83 0 1 0 101.66 0 a50.83 50.83 0 1 0 -101.66 0z" fill="#e73635"></path>
    <path d="M1084.57 88.84a53 53 0 1 0 97.7 41.1z" fill="rgba(129, 129, 129, 1)"></path>
    <path d="M87.79 306.42L121.27 306.42L121.27 339.9L87.79 339.9z" fill="#e73635"></path>
    <path d="M569.42 457.57L586.82 457.57L586.82 474.97L569.42 474.97z" fill="rgba(129, 129, 129, 1)"></path>
    <path d="M1293.32 82.16L1312.78 82.16L1312.78 129.72L1293.32 129.72z" stroke="rgba(129, 129, 129, 1)"></path>
    <path d="M163.04 460.5L167.56 460.5L167.56 516.22L163.04 516.22z" stroke="#e73635"></path>
    <path d="M1103.79 366.22 a22.26 22.26 0 1 0 44.52 0 a22.26 22.26 0 1 0 -44.52 0z" fill="#e73635"></path>
    <path d="M77.21-9.66a15.58 15.58 0 1 0 15.72 26.9z" fill="rgba(129, 129, 129, 1)"></path>
    <path d="M1110.27 510.19L1163.78 510.19L1163.78 521.26L1110.27 521.26z" stroke="rgba(129, 129, 129, 1)"></path>
    <path d="M39.16 342.87L80.34 342.87L80.34 384.05L39.16 384.05z" fill="#e73635"></path>
    <path d="M86.03 313.68 a9.63 9.63 0 1 0 19.26 0 a9.63 9.63 0 1 0 -19.26 0z" stroke="rgba(129, 129, 129, 1)"></path>
    <path d="M879.87 499.98 a31.96 31.96 0 1 0 63.92 0 a31.96 31.96 0 1 0 -63.92 0z" fill="#e73635"></path>
    <path d="M174.81 498.38a45.74 45.74 0 1 0-15.47-90.16z" fill="rgba(129, 129, 129, 1)"></path>
    <path d="M49.52 376.6a44.94 44.94 0 1 0-56.65-69.77z" fill="#e73635"></path>
  </g>
</svg>
